<mxfile host="app.diagrams.net" modified="2023-12-17T14:07:53.823Z" agent="Mozilla/5.0 (Windows NT 10.0; Win64; x64) AppleWebKit/537.36 (KHTML, like Gecko) Chrome/120.0.0.0 Safari/537.36 Edg/120.0.0.0" etag="0dU9yE8CIBcgWJQaU4Rc" version="22.1.11" type="device">
  <diagram name="Страница — 1" id="ZZ2EfaBm7a6IDFJKJsze">
    <mxGraphModel dx="1149" dy="679" grid="1" gridSize="10" guides="1" tooltips="1" connect="1" arrows="1" fold="1" page="1" pageScale="1" pageWidth="827" pageHeight="1169" math="0" shadow="0">
      <root>
        <mxCell id="0" />
        <mxCell id="1" parent="0" />
        <mxCell id="qhTMZGh4AH9Fs-Bt4C3k-4" value="" style="edgeStyle=orthogonalEdgeStyle;rounded=0;orthogonalLoop=1;jettySize=auto;html=1;" edge="1" parent="1" source="qhTMZGh4AH9Fs-Bt4C3k-1" target="qhTMZGh4AH9Fs-Bt4C3k-3">
          <mxGeometry relative="1" as="geometry" />
        </mxCell>
        <mxCell id="qhTMZGh4AH9Fs-Bt4C3k-1" value="func(char *s, int n)" style="strokeWidth=1;html=1;shape=mxgraph.flowchart.terminator;whiteSpace=wrap;" vertex="1" parent="1">
          <mxGeometry x="300" y="50" width="120" height="60" as="geometry" />
        </mxCell>
        <mxCell id="qhTMZGh4AH9Fs-Bt4C3k-7" value="" style="edgeStyle=orthogonalEdgeStyle;rounded=0;orthogonalLoop=1;jettySize=auto;html=1;" edge="1" parent="1" source="qhTMZGh4AH9Fs-Bt4C3k-3" target="qhTMZGh4AH9Fs-Bt4C3k-5">
          <mxGeometry relative="1" as="geometry" />
        </mxCell>
        <mxCell id="qhTMZGh4AH9Fs-Bt4C3k-3" value="lens = strlen(s)" style="rounded=0;whiteSpace=wrap;html=1;" vertex="1" parent="1">
          <mxGeometry x="300" y="170" width="120" height="60" as="geometry" />
        </mxCell>
        <mxCell id="qhTMZGh4AH9Fs-Bt4C3k-14" style="edgeStyle=orthogonalEdgeStyle;rounded=0;orthogonalLoop=1;jettySize=auto;html=1;" edge="1" parent="1" source="qhTMZGh4AH9Fs-Bt4C3k-5" target="qhTMZGh4AH9Fs-Bt4C3k-11">
          <mxGeometry relative="1" as="geometry">
            <Array as="points">
              <mxPoint x="260" y="320" />
              <mxPoint x="260" y="500" />
              <mxPoint x="360" y="500" />
            </Array>
          </mxGeometry>
        </mxCell>
        <mxCell id="qhTMZGh4AH9Fs-Bt4C3k-36" value="" style="edgeStyle=orthogonalEdgeStyle;rounded=0;orthogonalLoop=1;jettySize=auto;html=1;" edge="1" parent="1" source="qhTMZGh4AH9Fs-Bt4C3k-5" target="qhTMZGh4AH9Fs-Bt4C3k-6">
          <mxGeometry relative="1" as="geometry" />
        </mxCell>
        <mxCell id="qhTMZGh4AH9Fs-Bt4C3k-5" value="s[0] == &quot; &quot; or&lt;br&gt;s[0] == &quot;\t&quot;?" style="rhombus;whiteSpace=wrap;html=1;" vertex="1" parent="1">
          <mxGeometry x="290" y="280" width="140" height="80" as="geometry" />
        </mxCell>
        <mxCell id="qhTMZGh4AH9Fs-Bt4C3k-37" value="" style="edgeStyle=orthogonalEdgeStyle;rounded=0;orthogonalLoop=1;jettySize=auto;html=1;" edge="1" parent="1" source="qhTMZGh4AH9Fs-Bt4C3k-6" target="qhTMZGh4AH9Fs-Bt4C3k-9">
          <mxGeometry relative="1" as="geometry" />
        </mxCell>
        <mxCell id="qhTMZGh4AH9Fs-Bt4C3k-6" value="loop_left(s, 1)" style="shape=process;whiteSpace=wrap;html=1;backgroundOutline=1;" vertex="1" parent="1">
          <mxGeometry x="500" y="290" width="120" height="60" as="geometry" />
        </mxCell>
        <mxCell id="qhTMZGh4AH9Fs-Bt4C3k-17" style="edgeStyle=orthogonalEdgeStyle;rounded=0;orthogonalLoop=1;jettySize=auto;html=1;" edge="1" parent="1" source="qhTMZGh4AH9Fs-Bt4C3k-9" target="qhTMZGh4AH9Fs-Bt4C3k-5">
          <mxGeometry relative="1" as="geometry">
            <Array as="points">
              <mxPoint x="660" y="440" />
              <mxPoint x="660" y="260" />
              <mxPoint x="360" y="260" />
            </Array>
          </mxGeometry>
        </mxCell>
        <mxCell id="qhTMZGh4AH9Fs-Bt4C3k-9" value="s[lens-1] = &#39;\0&#39;&lt;br&gt;lens -= 1" style="rounded=0;whiteSpace=wrap;html=1;" vertex="1" parent="1">
          <mxGeometry x="500" y="410" width="120" height="60" as="geometry" />
        </mxCell>
        <mxCell id="qhTMZGh4AH9Fs-Bt4C3k-19" value="" style="edgeStyle=orthogonalEdgeStyle;rounded=0;orthogonalLoop=1;jettySize=auto;html=1;" edge="1" parent="1" source="qhTMZGh4AH9Fs-Bt4C3k-11" target="qhTMZGh4AH9Fs-Bt4C3k-18">
          <mxGeometry relative="1" as="geometry" />
        </mxCell>
        <mxCell id="qhTMZGh4AH9Fs-Bt4C3k-11" value="strcpy(s2, s)&lt;br&gt;strcpy(s, &quot; &quot;)&lt;br&gt;token = strtok(&quot; \t&quot;)" style="rounded=0;whiteSpace=wrap;html=1;" vertex="1" parent="1">
          <mxGeometry x="300" y="530" width="120" height="60" as="geometry" />
        </mxCell>
        <mxCell id="qhTMZGh4AH9Fs-Bt4C3k-15" value="да" style="text;html=1;strokeColor=none;fillColor=none;align=center;verticalAlign=middle;whiteSpace=wrap;rounded=0;" vertex="1" parent="1">
          <mxGeometry x="412" y="290" width="60" height="30" as="geometry" />
        </mxCell>
        <mxCell id="qhTMZGh4AH9Fs-Bt4C3k-16" value="нет" style="text;html=1;strokeColor=none;fillColor=none;align=center;verticalAlign=middle;whiteSpace=wrap;rounded=0;" vertex="1" parent="1">
          <mxGeometry x="260" y="290" width="60" height="30" as="geometry" />
        </mxCell>
        <mxCell id="qhTMZGh4AH9Fs-Bt4C3k-22" value="" style="edgeStyle=orthogonalEdgeStyle;rounded=0;orthogonalLoop=1;jettySize=auto;html=1;" edge="1" parent="1" source="qhTMZGh4AH9Fs-Bt4C3k-18" target="qhTMZGh4AH9Fs-Bt4C3k-21">
          <mxGeometry relative="1" as="geometry" />
        </mxCell>
        <mxCell id="qhTMZGh4AH9Fs-Bt4C3k-35" style="edgeStyle=orthogonalEdgeStyle;rounded=0;orthogonalLoop=1;jettySize=auto;html=1;entryX=0.5;entryY=0;entryDx=0;entryDy=0;" edge="1" parent="1" source="qhTMZGh4AH9Fs-Bt4C3k-18" target="qhTMZGh4AH9Fs-Bt4C3k-31">
          <mxGeometry relative="1" as="geometry">
            <Array as="points">
              <mxPoint x="260" y="680" />
              <mxPoint x="260" y="1100" />
              <mxPoint x="360" y="1100" />
            </Array>
          </mxGeometry>
        </mxCell>
        <mxCell id="qhTMZGh4AH9Fs-Bt4C3k-18" value="token == NULL?" style="rhombus;whiteSpace=wrap;html=1;" vertex="1" parent="1">
          <mxGeometry x="290" y="640" width="140" height="80" as="geometry" />
        </mxCell>
        <mxCell id="qhTMZGh4AH9Fs-Bt4C3k-25" value="" style="edgeStyle=orthogonalEdgeStyle;rounded=0;orthogonalLoop=1;jettySize=auto;html=1;" edge="1" parent="1" source="qhTMZGh4AH9Fs-Bt4C3k-20" target="qhTMZGh4AH9Fs-Bt4C3k-24">
          <mxGeometry relative="1" as="geometry" />
        </mxCell>
        <mxCell id="qhTMZGh4AH9Fs-Bt4C3k-34" style="edgeStyle=orthogonalEdgeStyle;rounded=0;orthogonalLoop=1;jettySize=auto;html=1;" edge="1" parent="1" source="qhTMZGh4AH9Fs-Bt4C3k-20" target="qhTMZGh4AH9Fs-Bt4C3k-30">
          <mxGeometry relative="1" as="geometry">
            <Array as="points">
              <mxPoint x="460" y="800" />
              <mxPoint x="460" y="980" />
              <mxPoint x="560" y="980" />
            </Array>
          </mxGeometry>
        </mxCell>
        <mxCell id="qhTMZGh4AH9Fs-Bt4C3k-20" value="i &amp;lt; abs(n)?" style="rhombus;whiteSpace=wrap;html=1;" vertex="1" parent="1">
          <mxGeometry x="490" y="760" width="140" height="80" as="geometry" />
        </mxCell>
        <mxCell id="qhTMZGh4AH9Fs-Bt4C3k-23" value="" style="edgeStyle=orthogonalEdgeStyle;rounded=0;orthogonalLoop=1;jettySize=auto;html=1;" edge="1" parent="1" source="qhTMZGh4AH9Fs-Bt4C3k-21" target="qhTMZGh4AH9Fs-Bt4C3k-20">
          <mxGeometry relative="1" as="geometry" />
        </mxCell>
        <mxCell id="qhTMZGh4AH9Fs-Bt4C3k-21" value="i = 0" style="rounded=0;whiteSpace=wrap;html=1;" vertex="1" parent="1">
          <mxGeometry x="500" y="650" width="120" height="60" as="geometry" />
        </mxCell>
        <mxCell id="qhTMZGh4AH9Fs-Bt4C3k-27" value="" style="edgeStyle=orthogonalEdgeStyle;rounded=0;orthogonalLoop=1;jettySize=auto;html=1;" edge="1" parent="1" source="qhTMZGh4AH9Fs-Bt4C3k-24" target="qhTMZGh4AH9Fs-Bt4C3k-26">
          <mxGeometry relative="1" as="geometry" />
        </mxCell>
        <mxCell id="qhTMZGh4AH9Fs-Bt4C3k-24" value="loop_left(token, n)" style="shape=process;whiteSpace=wrap;html=1;backgroundOutline=1;" vertex="1" parent="1">
          <mxGeometry x="700" y="770" width="120" height="60" as="geometry" />
        </mxCell>
        <mxCell id="qhTMZGh4AH9Fs-Bt4C3k-29" style="edgeStyle=orthogonalEdgeStyle;rounded=0;orthogonalLoop=1;jettySize=auto;html=1;" edge="1" parent="1" source="qhTMZGh4AH9Fs-Bt4C3k-26" target="qhTMZGh4AH9Fs-Bt4C3k-20">
          <mxGeometry relative="1" as="geometry">
            <Array as="points">
              <mxPoint x="760" y="980" />
              <mxPoint x="840" y="980" />
              <mxPoint x="840" y="740" />
              <mxPoint x="560" y="740" />
            </Array>
          </mxGeometry>
        </mxCell>
        <mxCell id="qhTMZGh4AH9Fs-Bt4C3k-26" value="i += 1" style="rounded=0;whiteSpace=wrap;html=1;" vertex="1" parent="1">
          <mxGeometry x="700" y="890" width="120" height="60" as="geometry" />
        </mxCell>
        <mxCell id="qhTMZGh4AH9Fs-Bt4C3k-38" style="edgeStyle=orthogonalEdgeStyle;rounded=0;orthogonalLoop=1;jettySize=auto;html=1;" edge="1" parent="1" source="qhTMZGh4AH9Fs-Bt4C3k-30" target="qhTMZGh4AH9Fs-Bt4C3k-18">
          <mxGeometry relative="1" as="geometry">
            <mxPoint x="880" y="620" as="targetPoint" />
            <Array as="points">
              <mxPoint x="860" y="1040" />
              <mxPoint x="860" y="620" />
              <mxPoint x="360" y="620" />
            </Array>
          </mxGeometry>
        </mxCell>
        <mxCell id="qhTMZGh4AH9Fs-Bt4C3k-30" value="strcat(s, token)&lt;br&gt;strcat(s,space)&lt;br&gt;token = strtok(NULL,&lt;br&gt;&quot; \t&quot;)" style="rounded=0;whiteSpace=wrap;html=1;" vertex="1" parent="1">
          <mxGeometry x="500" y="1010" width="120" height="60" as="geometry" />
        </mxCell>
        <mxCell id="qhTMZGh4AH9Fs-Bt4C3k-33" value="" style="edgeStyle=orthogonalEdgeStyle;rounded=0;orthogonalLoop=1;jettySize=auto;html=1;" edge="1" parent="1" source="qhTMZGh4AH9Fs-Bt4C3k-31" target="qhTMZGh4AH9Fs-Bt4C3k-32">
          <mxGeometry relative="1" as="geometry" />
        </mxCell>
        <mxCell id="qhTMZGh4AH9Fs-Bt4C3k-31" value="s[lens] = &#39;\0&#39;" style="rounded=0;whiteSpace=wrap;html=1;" vertex="1" parent="1">
          <mxGeometry x="300" y="1130" width="120" height="60" as="geometry" />
        </mxCell>
        <mxCell id="qhTMZGh4AH9Fs-Bt4C3k-32" value="Конец" style="strokeWidth=1;html=1;shape=mxgraph.flowchart.terminator;whiteSpace=wrap;" vertex="1" parent="1">
          <mxGeometry x="300" y="1250" width="120" height="60" as="geometry" />
        </mxCell>
        <mxCell id="qhTMZGh4AH9Fs-Bt4C3k-39" value="нет" style="text;html=1;strokeColor=none;fillColor=none;align=center;verticalAlign=middle;whiteSpace=wrap;rounded=0;" vertex="1" parent="1">
          <mxGeometry x="260" y="650" width="60" height="30" as="geometry" />
        </mxCell>
        <mxCell id="qhTMZGh4AH9Fs-Bt4C3k-40" value="да" style="text;html=1;strokeColor=none;fillColor=none;align=center;verticalAlign=middle;whiteSpace=wrap;rounded=0;" vertex="1" parent="1">
          <mxGeometry x="406" y="650" width="60" height="30" as="geometry" />
        </mxCell>
        <mxCell id="qhTMZGh4AH9Fs-Bt4C3k-41" value="нет" style="text;html=1;strokeColor=none;fillColor=none;align=center;verticalAlign=middle;whiteSpace=wrap;rounded=0;" vertex="1" parent="1">
          <mxGeometry x="457" y="770" width="60" height="30" as="geometry" />
        </mxCell>
        <mxCell id="qhTMZGh4AH9Fs-Bt4C3k-42" value="да" style="text;html=1;strokeColor=none;fillColor=none;align=center;verticalAlign=middle;whiteSpace=wrap;rounded=0;" vertex="1" parent="1">
          <mxGeometry x="606" y="770" width="60" height="30" as="geometry" />
        </mxCell>
        <mxCell id="qhTMZGh4AH9Fs-Bt4C3k-43" value="&lt;font style=&quot;font-size: 24px;&quot;&gt;1&lt;/font&gt;" style="text;html=1;strokeColor=none;fillColor=none;align=center;verticalAlign=middle;whiteSpace=wrap;rounded=0;" vertex="1" parent="1">
          <mxGeometry x="330" y="10" width="60" height="30" as="geometry" />
        </mxCell>
        <mxCell id="qhTMZGh4AH9Fs-Bt4C3k-44" value="&lt;font style=&quot;font-size: 24px;&quot;&gt;2&lt;/font&gt;" style="text;html=1;strokeColor=none;fillColor=none;align=center;verticalAlign=middle;whiteSpace=wrap;rounded=0;" vertex="1" parent="1">
          <mxGeometry x="530" y="10" width="60" height="30" as="geometry" />
        </mxCell>
        <mxCell id="qhTMZGh4AH9Fs-Bt4C3k-45" value="&lt;font style=&quot;font-size: 24px;&quot;&gt;3&lt;/font&gt;" style="text;html=1;strokeColor=none;fillColor=none;align=center;verticalAlign=middle;whiteSpace=wrap;rounded=0;" vertex="1" parent="1">
          <mxGeometry x="730" y="10" width="60" height="30" as="geometry" />
        </mxCell>
        <mxCell id="qhTMZGh4AH9Fs-Bt4C3k-46" value="&lt;font style=&quot;font-size: 24px;&quot;&gt;A&lt;/font&gt;" style="text;html=1;strokeColor=none;fillColor=none;align=center;verticalAlign=middle;whiteSpace=wrap;rounded=0;" vertex="1" parent="1">
          <mxGeometry x="170" y="65" width="60" height="30" as="geometry" />
        </mxCell>
        <mxCell id="qhTMZGh4AH9Fs-Bt4C3k-47" value="&lt;font style=&quot;font-size: 24px;&quot;&gt;B&lt;/font&gt;" style="text;html=1;strokeColor=none;fillColor=none;align=center;verticalAlign=middle;whiteSpace=wrap;rounded=0;" vertex="1" parent="1">
          <mxGeometry x="170" y="185" width="60" height="30" as="geometry" />
        </mxCell>
        <mxCell id="qhTMZGh4AH9Fs-Bt4C3k-48" value="&lt;font style=&quot;font-size: 24px;&quot;&gt;C&lt;/font&gt;" style="text;html=1;strokeColor=none;fillColor=none;align=center;verticalAlign=middle;whiteSpace=wrap;rounded=0;" vertex="1" parent="1">
          <mxGeometry x="170" y="305" width="60" height="30" as="geometry" />
        </mxCell>
        <mxCell id="qhTMZGh4AH9Fs-Bt4C3k-49" value="&lt;font style=&quot;font-size: 24px;&quot;&gt;D&lt;/font&gt;" style="text;html=1;strokeColor=none;fillColor=none;align=center;verticalAlign=middle;whiteSpace=wrap;rounded=0;" vertex="1" parent="1">
          <mxGeometry x="170" y="425" width="60" height="30" as="geometry" />
        </mxCell>
        <mxCell id="qhTMZGh4AH9Fs-Bt4C3k-50" value="&lt;font style=&quot;font-size: 24px;&quot;&gt;E&lt;/font&gt;" style="text;html=1;strokeColor=none;fillColor=none;align=center;verticalAlign=middle;whiteSpace=wrap;rounded=0;" vertex="1" parent="1">
          <mxGeometry x="170" y="545" width="60" height="30" as="geometry" />
        </mxCell>
        <mxCell id="qhTMZGh4AH9Fs-Bt4C3k-51" value="&lt;font style=&quot;font-size: 24px;&quot;&gt;F&lt;/font&gt;" style="text;html=1;strokeColor=none;fillColor=none;align=center;verticalAlign=middle;whiteSpace=wrap;rounded=0;" vertex="1" parent="1">
          <mxGeometry x="170" y="665" width="60" height="30" as="geometry" />
        </mxCell>
        <mxCell id="qhTMZGh4AH9Fs-Bt4C3k-52" value="&lt;font style=&quot;font-size: 24px;&quot;&gt;G&lt;/font&gt;" style="text;html=1;strokeColor=none;fillColor=none;align=center;verticalAlign=middle;whiteSpace=wrap;rounded=0;" vertex="1" parent="1">
          <mxGeometry x="170" y="785" width="60" height="30" as="geometry" />
        </mxCell>
        <mxCell id="qhTMZGh4AH9Fs-Bt4C3k-53" value="&lt;font style=&quot;font-size: 24px;&quot;&gt;H&lt;/font&gt;" style="text;html=1;strokeColor=none;fillColor=none;align=center;verticalAlign=middle;whiteSpace=wrap;rounded=0;" vertex="1" parent="1">
          <mxGeometry x="170" y="905" width="60" height="30" as="geometry" />
        </mxCell>
        <mxCell id="qhTMZGh4AH9Fs-Bt4C3k-54" value="&lt;font style=&quot;font-size: 24px;&quot;&gt;I&lt;/font&gt;" style="text;html=1;strokeColor=none;fillColor=none;align=center;verticalAlign=middle;whiteSpace=wrap;rounded=0;" vertex="1" parent="1">
          <mxGeometry x="170" y="1025" width="60" height="30" as="geometry" />
        </mxCell>
        <mxCell id="qhTMZGh4AH9Fs-Bt4C3k-55" value="&lt;font style=&quot;font-size: 24px;&quot;&gt;J&lt;/font&gt;" style="text;html=1;strokeColor=none;fillColor=none;align=center;verticalAlign=middle;whiteSpace=wrap;rounded=0;" vertex="1" parent="1">
          <mxGeometry x="170" y="1145" width="60" height="30" as="geometry" />
        </mxCell>
        <mxCell id="qhTMZGh4AH9Fs-Bt4C3k-56" value="&lt;font style=&quot;font-size: 24px;&quot;&gt;K&lt;/font&gt;" style="text;html=1;strokeColor=none;fillColor=none;align=center;verticalAlign=middle;whiteSpace=wrap;rounded=0;" vertex="1" parent="1">
          <mxGeometry x="170" y="1265" width="60" height="30" as="geometry" />
        </mxCell>
      </root>
    </mxGraphModel>
  </diagram>
</mxfile>
